<?xml version="1.0" encoding="UTF-8" standalone="no"?>
<svg width="17px" height="17px" viewBox="0 0 17 17" version="1.1" xmlns="http://www.w3.org/2000/svg" xmlns:xlink="http://www.w3.org/1999/xlink">
    <!-- Generator: Sketch 3.7.2 (28276) - http://www.bohemiancoding.com/sketch -->
    <title>plus25</title>
    <desc>Created with Sketch.</desc>
    <defs></defs>
    <g id="Page-1" stroke="none" stroke-width="1" fill="none" fill-rule="evenodd">
        <g id="Group-8" transform="translate(-1163.000000, -41.000000)" fill="#B8B8B8">
            <g id="plus25" transform="translate(1163.000000, 41.000000)">
                <path d="M16.6618228,6.51991457 C16.4365689,6.29436429 16.1627076,6.18173735 15.8408316,6.18173735 L10.8176699,6.18173735 L10.8176699,1.15887199 C10.8176699,0.836996034 10.7050429,0.563134725 10.479789,0.337880835 C10.2542388,0.112626945 9.98067384,-3.55271368e-15 9.6585015,-3.55271368e-15 L7.34046114,-3.55271368e-15 C7.01858519,-3.55271368e-15 6.74472388,0.112626945 6.51946999,0.337880835 C6.2942161,0.563134725 6.18158916,0.836996034 6.18158916,1.15887199 L6.18158916,6.18173735 L1.15887199,6.18173735 C0.836996034,6.18173735 0.563134725,6.29436429 0.337880835,6.51961818 C0.112626945,6.74487207 0,7.01873338 0,7.34060934 L0,9.65909428 C0,9.98111842 0.112626945,10.2548315 0.337880835,10.4800854 C0.563134725,10.7053393 0.836996034,10.8179663 1.15887199,10.8179663 L6.18158916,10.8179663 L6.18158916,15.8409798 C6.18158916,16.1628558 6.2942161,16.4367171 6.51946999,16.661971 C6.74472388,16.8872249 7.01888158,16.9998518 7.34046114,16.9998518 L9.65879789,16.9998518 C9.98111842,16.9998518 10.2545352,16.8872249 10.4800854,16.661971 C10.7053393,16.4367171 10.8179663,16.1628558 10.8179663,15.8409798 L10.8179663,10.8179663 L15.8408316,10.8179663 C16.1628558,10.8179663 16.4365689,10.7053393 16.6618228,10.4800854 C16.8870767,10.2548315 17,9.98111842 17,9.65909428 L17,7.34090572 C17,7.01873338 16.8873731,6.74516846 16.6618228,6.51991457 L16.6618228,6.51991457 Z" id="Shape"></path>
            </g>
        </g>
    </g>
</svg>