<?xml version="1.0" encoding="UTF-8" standalone="no"?>
<svg width="80px" height="128px" viewBox="0 0 80 128" version="1.1" xmlns="http://www.w3.org/2000/svg" xmlns:xlink="http://www.w3.org/1999/xlink">
    <!-- Generator: Sketch 3.7.2 (28276) - http://www.bohemiancoding.com/sketch -->
    <title>Shape</title>
    <desc>Created with Sketch.</desc>
    <defs></defs>
    <g id="Page-1" stroke="none" stroke-width="1" fill="none" fill-rule="evenodd">
        <path d="M37.393,64.04 L76.988,24.445 C78.998,22.435 80.003,19.977 80.003,17.071 C80.003,14.166 78.999,11.709 76.988,9.699 L70.878,3.589 C68.868,1.579 66.411,0.574 63.506,0.574 C60.6,0.574 58.143,1.579 56.132,3.588 L3.012,56.628 C1.002,58.638 -0.003,61.095 -0.003,64.001 C-0.003,66.907 1.002,69.364 3.012,71.374 L56.132,124.414 C58.142,126.424 60.6,127.428 63.506,127.428 C66.411,127.428 68.869,126.423 70.878,124.413 L76.988,118.303 C78.998,116.293 80.003,113.849 80.003,110.97 C80.003,108.09 78.999,105.62 76.988,103.555 L37.393,64.04 L37.393,64.04 Z" id="Shape" fill="#FFFFFF"></path>
    </g>
</svg>