<?xml version="1.0" encoding="UTF-8" standalone="no"?>
<svg width="18px" height="18px" viewBox="0 0 18 18" version="1.1" xmlns="http://www.w3.org/2000/svg" xmlns:xlink="http://www.w3.org/1999/xlink">
    <!-- Generator: Sketch 3.7.2 (28276) - http://www.bohemiancoding.com/sketch -->
    <title>search19</title>
    <desc>Created with Sketch.</desc>
    <defs></defs>
    <g id="Page-1" stroke="none" stroke-width="1" fill="none" fill-rule="evenodd">
        <g id="Group-8" transform="translate(-815.000000, -41.000000)" fill="#B8B8B8">
            <g id="Group-2" transform="translate(815.000000, 36.000000)">
                <g id="search19" transform="translate(0.000000, 5.000000)">
                    <path d="M17.5725,15.6209559 L13.8738971,11.9223529 C14.7652941,10.6356176 15.2111912,9.20117647 15.2111912,7.61982353 C15.2111912,6.59183824 15.0113382,5.60872059 14.6124265,4.67060294 C14.2135147,3.73222059 13.6743088,2.92354412 12.9950735,2.24417647 C12.3158382,1.56480882 11.5070294,1.02560294 10.5690441,0.626823529 C9.63066176,0.227647059 8.64727941,0.0281911765 7.61942647,0.0281911765 C6.59144118,0.0281911765 5.60832353,0.227647059 4.67020588,0.626691176 C3.73182353,1.02560294 2.92314706,1.56480882 2.24391176,2.24404412 C1.56454412,2.92354412 1.02533824,3.73235294 0.626558824,4.67047059 C0.227382353,5.60858824 0.0279264706,6.59157353 0.0279264706,7.61955882 C0.0279264706,8.64754412 0.227382353,9.63039706 0.626426471,10.5687794 C1.02533824,11.5068971 1.56454412,12.3154412 2.24377941,12.9948088 C2.92327941,13.6743088 3.73208824,14.2133824 4.67020588,14.6124265 C5.60858824,15.0114706 6.59144118,15.2109265 7.61942647,15.2109265 C9.20104412,15.2109265 10.6353529,14.7648971 11.9222206,13.8735 L15.6206912,17.56125 C15.8794412,17.8344265 16.2026471,17.9710147 16.5911029,17.9710147 C16.9648676,17.9710147 17.2886029,17.8344265 17.5615147,17.56125 C17.8346912,17.2882059 17.9712794,16.9646029 17.9712794,16.5908382 C17.9712794,16.2100588 17.8385294,15.8864559 17.5723676,15.6206912 L17.5725,15.6209559 Z M11.0325441,11.0325441 C10.0871471,11.9779412 8.94970588,12.4504412 7.61955882,12.4504412 C6.28967647,12.4504412 5.15210294,11.9779412 4.20670588,11.0325441 C3.26117647,10.0871471 2.78867647,8.94970588 2.78867647,7.61955882 C2.78867647,6.28980882 3.26144118,5.15210294 4.20670588,4.20683824 C5.15197059,3.26144118 6.28967647,2.78867647 7.61955882,2.78867647 C8.94944118,2.78867647 10.0870147,3.26157353 11.0325441,4.20683824 C11.9779412,5.15210294 12.4507059,6.28980882 12.4507059,7.61969118 C12.4507059,8.94983824 11.9778088,10.0872794 11.0325441,11.0326765 L11.0325441,11.0325441 Z" id="Shape"></path>
                </g>
            </g>
        </g>
    </g>
</svg>